<svg width="512" height="512" viewBox="0 0 120 120" fill="none" xmlns="http://www.w3.org/2000/svg" class=""><defs><linearGradient id="bearGradient" x1="0%" y1="0%" x2="100%" y2="100%"><stop offset="0%" stop-color="#8B5CF6"></stop><stop offset="50%" stop-color="#7C3AED"></stop><stop offset="100%" stop-color="#6D28D9"></stop></linearGradient><linearGradient id="questionGradient" x1="0%" y1="0%" x2="100%" y2="100%"><stop offset="0%" stop-color="#F472B6"></stop><stop offset="100%" stop-color="#EC4899"></stop></linearGradient><filter id="glow"><feGaussianBlur stdDeviation="3" result="coloredBlur"></feGaussianBlur><feMerge><feMergeNode in="coloredBlur"></feMergeNode><feMergeNode in="SourceGraphic"></feMergeNode></feMerge></filter></defs><circle cx="60" cy="65" r="40" fill="url(#bearGradient)" filter="url(#glow)"></circle><circle cx="42" cy="40" r="14" fill="#7C3AED"></circle><circle cx="78" cy="40" r="14" fill="#7C3AED"></circle><circle cx="42" cy="40" r="9" fill="#F3E8FF"></circle><circle cx="78" cy="40" r="9" fill="#F3E8FF"></circle><circle cx="50" cy="58" r="5" fill="#1F2937"></circle><circle cx="70" cy="58" r="5" fill="#1F2937"></circle><circle cx="51" cy="56" r="2" fill="#FFFFFF"></circle><circle cx="71" cy="56" r="2" fill="#FFFFFF"></circle><ellipse cx="60" cy="70" rx="4" ry="3" fill="#1F2937"></ellipse><path d="M 52 78 Q 60 85 68 78" stroke="#1F2937" stroke-width="3" fill="none" stroke-linecap="round"></path><g transform="translate(60, 35)"><path d="M -6 -8 Q -6 -15 0 -15 Q 6 -15 6 -8 Q 6 -3 3 -1 Q 0 1 0 4" stroke="url(#questionGradient)" stroke-width="3" fill="none" stroke-linecap="round" filter="url(#glow)"></path><circle cx="0" cy="8" r="2" fill="url(#questionGradient)" filter="url(#glow)"></circle></g><g opacity="0.6"><circle cx="25" cy="25" r="1" fill="#F472B6"></circle><text x="23" y="30" font-size="8" fill="#F472B6" font-weight="bold">?</text><circle cx="95" cy="35" r="1" fill="#EC4899"></circle><text x="93" y="40" font-size="6" fill="#EC4899" font-weight="bold">?</text><circle cx="15" cy="85" r="1" fill="#F472B6"></circle><text x="13" y="90" font-size="7" fill="#F472B6" font-weight="bold">?</text></g><circle cx="60" cy="65" r="50" stroke="url(#bearGradient)" stroke-width="2" fill="none" opacity="0.3" stroke-dasharray="5,5"><animateTransform attributeName="transform" attributeType="XML" type="rotate" from="0 60 65" to="360 60 65" dur="20s" repeatCount="indefinite"></animateTransform></circle></svg>